# MagicaVoxel @ Ephtracy

# group
o 

# material
mtllib log_1.mtl
usemtl palette

# normals
vn -1 0 0
vn 1 0 0
vn 0 0 1
vn 0 0 -1
vn 0 -1 0
vn 0 1 0

# texcoords
vt 0.369141 0.5
vt 0.373047 0.5
vt 0.537109 0.5

# verts
v -2.3 0.1 0.2
v -2.3 0.1 -0.4
v -2.3 0.2 0.4
v -2.3 0.2 0.2
v -2.3 0.2 -0.4
v -2.3 0.2 -0.6
v -2.3 0.3 0.5
v -2.3 0.3 0.4
v -2.3 0.3 0.1
v -2.3 0.3 -0.3
v -2.3 0.3 -0.6
v -2.3 0.3 -0.7
v -2.3 0.4 0.6
v -2.3 0.4 0.5
v -2.3 0.4 0.3
v -2.3 0.4 0.1
v -2.3 0.4 -0.3
v -2.3 0.4 -0.5
v -2.3 0.4 -0.7
v -2.3 0.4 -0.8
v -2.3 0.5 0.4
v -2.3 0.5 0.3
v -2.3 0.5 0.1
v -2.3 0.5 -0.3
v -2.3 0.5 -0.5
v -2.3 0.5 -0.6
v -2.3 0.6 0.7
v -2.3 0.6 0.6
v -2.3 0.6 0.2
v -2.3 0.6 0.1
v -2.3 0.6 -0.3
v -2.3 0.6 -0.4
v -2.3 0.6 -0.8
v -2.3 0.6 -0.9
v -2.3 0.7 0.5
v -2.3 0.7 0.4
v -2.3 0.7 0.3
v -2.3 0.7 0.2
v -2.3 0.7 0.1
v -2.3 0.7 0
v -2.3 0.7 -0.2
v -2.3 0.7 -0.3
v -2.3 0.7 -0.4
v -2.3 0.7 -0.5
v -2.3 0.7 -0.6
v -2.3 0.7 -0.7
v -2.3 0.8 0.1
v -2.3 0.8 0
v -2.3 0.8 -0.2
v -2.3 0.8 -0.3
v -2.3 1 0.1
v -2.3 1 0
v -2.3 1 -0.2
v -2.3 1 -0.3
v -2.3 1.1 0.5
v -2.3 1.1 0.4
v -2.3 1.1 0.3
v -2.3 1.1 0.2
v -2.3 1.1 0.1
v -2.3 1.1 0
v -2.3 1.1 -0.2
v -2.3 1.1 -0.3
v -2.3 1.1 -0.4
v -2.3 1.1 -0.5
v -2.3 1.1 -0.6
v -2.3 1.1 -0.7
v -2.3 1.2 0.7
v -2.3 1.2 0.6
v -2.3 1.2 0.2
v -2.3 1.2 0.1
v -2.3 1.2 -0.3
v -2.3 1.2 -0.4
v -2.3 1.2 -0.8
v -2.3 1.2 -0.9
v -2.3 1.3 0.4
v -2.3 1.3 0.3
v -2.3 1.3 0.1
v -2.3 1.3 -0.3
v -2.3 1.3 -0.5
v -2.3 1.3 -0.6
v -2.3 1.4 0.6
v -2.3 1.4 0.5
v -2.3 1.4 0.3
v -2.3 1.4 0.1
v -2.3 1.4 -0.3
v -2.3 1.4 -0.5
v -2.3 1.4 -0.7
v -2.3 1.4 -0.8
v -2.3 1.5 0.5
v -2.3 1.5 0.4
v -2.3 1.5 0.1
v -2.3 1.5 -0.3
v -2.3 1.5 -0.6
v -2.3 1.5 -0.7
v -2.3 1.6 0.4
v -2.3 1.6 0.2
v -2.3 1.6 -0.4
v -2.3 1.6 -0.6
v -2.3 1.7 0.2
v -2.3 1.7 -0.4
v 0.9 0.1 0.2
v 0.9 0.1 -0.4
v 0.9 0.2 0.4
v 0.9 0.2 0.2
v 0.9 0.2 -0.4
v 0.9 0.2 -0.6
v 0.9 0.3 0.5
v 0.9 0.3 0.4
v 0.9 0.3 0.1
v 0.9 0.3 -0.3
v 0.9 0.3 -0.6
v 0.9 0.3 -0.7
v 0.9 0.4 0.6
v 0.9 0.4 0.5
v 0.9 0.4 0.3
v 0.9 0.4 0.1
v 0.9 0.4 -0.3
v 0.9 0.4 -0.5
v 0.9 0.4 -0.7
v 0.9 0.4 -0.8
v 0.9 0.5 0.4
v 0.9 0.5 0.3
v 0.9 0.5 0.1
v 0.9 0.5 -0.3
v 0.9 0.5 -0.5
v 0.9 0.5 -0.6
v 0.9 0.6 0.7
v 0.9 0.6 0.6
v 0.9 0.6 0.2
v 0.9 0.6 0.1
v 0.9 0.6 -0.3
v 0.9 0.6 -0.4
v 0.9 0.6 -0.8
v 0.9 0.6 -0.9
v 0.9 0.7 0.5
v 0.9 0.7 0.4
v 0.9 0.7 0.3
v 0.9 0.7 0.2
v 0.9 0.7 0.1
v 0.9 0.7 0
v 0.9 0.7 -0.2
v 0.9 0.7 -0.3
v 0.9 0.7 -0.4
v 0.9 0.7 -0.5
v 0.9 0.7 -0.6
v 0.9 0.7 -0.7
v 0.9 0.8 0.1
v 0.9 0.8 0
v 0.9 0.8 -0.2
v 0.9 0.8 -0.3
v 0.9 1 0.1
v 0.9 1 0
v 0.9 1 -0.2
v 0.9 1 -0.3
v 0.9 1.1 0.5
v 0.9 1.1 0.4
v 0.9 1.1 0.3
v 0.9 1.1 0.2
v 0.9 1.1 0.1
v 0.9 1.1 0
v 0.9 1.1 -0.2
v 0.9 1.1 -0.3
v 0.9 1.1 -0.4
v 0.9 1.1 -0.5
v 0.9 1.1 -0.6
v 0.9 1.1 -0.7
v 0.9 1.2 0.7
v 0.9 1.2 0.6
v 0.9 1.2 0.2
v 0.9 1.2 0.1
v 0.9 1.2 -0.3
v 0.9 1.2 -0.4
v 0.9 1.2 -0.8
v 0.9 1.2 -0.9
v 0.9 1.3 0.4
v 0.9 1.3 0.3
v 0.9 1.3 0.1
v 0.9 1.3 -0.3
v 0.9 1.3 -0.5
v 0.9 1.3 -0.6
v 0.9 1.4 0.6
v 0.9 1.4 0.5
v 0.9 1.4 0.3
v 0.9 1.4 0.1
v 0.9 1.4 -0.3
v 0.9 1.4 -0.5
v 0.9 1.4 -0.7
v 0.9 1.4 -0.8
v 0.9 1.5 0.5
v 0.9 1.5 0.4
v 0.9 1.5 0.1
v 0.9 1.5 -0.3
v 0.9 1.5 -0.6
v 0.9 1.5 -0.7
v 0.9 1.6 0.4
v 0.9 1.6 0.2
v 0.9 1.6 -0.4
v 0.9 1.6 -0.6
v 0.9 1.7 0.2
v 0.9 1.7 -0.4
v -2.3 0.6 0.7
v -2.3 1.2 0.7
v 0.9 0.6 0.7
v 0.9 1.2 0.7
v -2.3 0.4 0.6
v -2.3 0.6 0.6
v -2.3 1.2 0.6
v -2.3 1.4 0.6
v 0.9 0.4 0.6
v 0.9 0.6 0.6
v 0.9 1.2 0.6
v 0.9 1.4 0.6
v -2.3 0.3 0.5
v -2.3 0.4 0.5
v -2.3 1.4 0.5
v -2.3 1.5 0.5
v 0.9 0.3 0.5
v 0.9 0.4 0.5
v 0.9 1.4 0.5
v 0.9 1.5 0.5
v -2.3 0.2 0.4
v -2.3 0.3 0.4
v -2.3 1.5 0.4
v -2.3 1.6 0.4
v 0.9 0.2 0.4
v 0.9 0.3 0.4
v 0.9 1.5 0.4
v 0.9 1.6 0.4
v -2.3 0.1 0.2
v -2.3 0.2 0.2
v -2.3 1.6 0.2
v -2.3 1.7 0.2
v 0.9 0.1 0.2
v 0.9 0.2 0.2
v 0.9 1.6 0.2
v 0.9 1.7 0.2
v -2.3 0.1 -0.4
v -2.3 0.2 -0.4
v -2.3 1.6 -0.4
v -2.3 1.7 -0.4
v 0.9 0.1 -0.4
v 0.9 0.2 -0.4
v 0.9 1.6 -0.4
v 0.9 1.7 -0.4
v -2.3 0.2 -0.6
v -2.3 0.3 -0.6
v -2.3 1.5 -0.6
v -2.3 1.6 -0.6
v 0.9 0.2 -0.6
v 0.9 0.3 -0.6
v 0.9 1.5 -0.6
v 0.9 1.6 -0.6
v -2.3 0.3 -0.7
v -2.3 0.4 -0.7
v -2.3 1.4 -0.7
v -2.3 1.5 -0.7
v 0.9 0.3 -0.7
v 0.9 0.4 -0.7
v 0.9 1.4 -0.7
v 0.9 1.5 -0.7
v -2.3 0.4 -0.8
v -2.3 0.6 -0.8
v -2.3 1.2 -0.8
v -2.3 1.4 -0.8
v 0.9 0.4 -0.8
v 0.9 0.6 -0.8
v 0.9 1.2 -0.8
v 0.9 1.4 -0.8
v -2.3 0.6 -0.9
v -2.3 1.2 -0.9
v 0.9 0.6 -0.9
v 0.9 1.2 -0.9
v -2.3 0.1 0.2
v 0.9 0.1 0.2
v -2.3 0.1 -0.4
v 0.9 0.1 -0.4
v -2.3 0.2 0.4
v 0.9 0.2 0.4
v -2.3 0.2 0.2
v 0.9 0.2 0.2
v -2.3 0.2 -0.4
v 0.9 0.2 -0.4
v -2.3 0.2 -0.6
v 0.9 0.2 -0.6
v -2.3 0.3 0.5
v 0.9 0.3 0.5
v -2.3 0.3 0.4
v 0.9 0.3 0.4
v -2.3 0.3 -0.6
v 0.9 0.3 -0.6
v -2.3 0.3 -0.7
v 0.9 0.3 -0.7
v -2.3 0.4 0.6
v 0.9 0.4 0.6
v -2.3 0.4 0.5
v 0.9 0.4 0.5
v -2.3 0.4 -0.7
v 0.9 0.4 -0.7
v -2.3 0.4 -0.8
v 0.9 0.4 -0.8
v -2.3 0.6 0.7
v 0.9 0.6 0.7
v -2.3 0.6 0.6
v 0.9 0.6 0.6
v -2.3 0.6 -0.8
v 0.9 0.6 -0.8
v -2.3 0.6 -0.9
v 0.9 0.6 -0.9
v -2.3 1.2 0.7
v 0.9 1.2 0.7
v -2.3 1.2 0.6
v 0.9 1.2 0.6
v -2.3 1.2 -0.8
v 0.9 1.2 -0.8
v -2.3 1.2 -0.9
v 0.9 1.2 -0.9
v -2.3 1.4 0.6
v 0.9 1.4 0.6
v -2.3 1.4 0.5
v 0.9 1.4 0.5
v -2.3 1.4 -0.7
v 0.9 1.4 -0.7
v -2.3 1.4 -0.8
v 0.9 1.4 -0.8
v -2.3 1.5 0.5
v 0.9 1.5 0.5
v -2.3 1.5 0.4
v 0.9 1.5 0.4
v -2.3 1.5 -0.6
v 0.9 1.5 -0.6
v -2.3 1.5 -0.7
v 0.9 1.5 -0.7
v -2.3 1.6 0.4
v 0.9 1.6 0.4
v -2.3 1.6 0.2
v 0.9 1.6 0.2
v -2.3 1.6 -0.4
v 0.9 1.6 -0.4
v -2.3 1.6 -0.6
v 0.9 1.6 -0.6
v -2.3 1.7 0.2
v 0.9 1.7 0.2
v -2.3 1.7 -0.4
v 0.9 1.7 -0.4

# faces
f 4/3/1 2/3/1 1/3/1
f 5/3/1 2/3/1 4/3/1
f 8/3/1 4/3/1 3/3/1
f 8/3/1 6/3/1 5/3/1
f 8/3/1 5/3/1 4/3/1
f 9/3/1 6/3/1 8/3/1
f 10/3/1 6/3/1 9/3/1
f 11/3/1 6/3/1 10/3/1
f 14/3/1 8/3/1 7/3/1
f 14/3/1 9/3/1 8/3/1
f 15/3/1 9/3/1 14/3/1
f 16/1/1 10/1/1 9/1/1
f 16/3/1 9/3/1 15/3/1
f 17/3/1 12/3/1 11/3/1
f 17/1/1 10/1/1 16/1/1
f 17/3/1 11/3/1 10/3/1
f 18/3/1 12/3/1 17/3/1
f 19/3/1 12/3/1 18/3/1
f 21/3/1 14/3/1 13/3/1
f 21/3/1 15/3/1 14/3/1
f 22/1/1 16/1/1 15/1/1
f 22/3/1 15/3/1 21/3/1
f 22/1/1 17/1/1 16/1/1
f 22/1/1 18/1/1 17/1/1
f 23/1/1 18/1/1 22/1/1
f 24/1/1 18/1/1 23/1/1
f 25/3/1 20/3/1 19/3/1
f 25/1/1 18/1/1 24/1/1
f 25/3/1 19/3/1 18/3/1
f 26/3/1 20/3/1 25/3/1
f 28/3/1 21/3/1 13/3/1
f 29/1/1 23/1/1 22/1/1
f 29/1/1 22/1/1 21/1/1
f 30/2/1 24/2/1 23/2/1
f 30/1/1 23/1/1 29/1/1
f 31/1/1 25/1/1 24/1/1
f 31/2/1 24/2/1 30/2/1
f 31/1/1 26/1/1 25/1/1
f 32/1/1 26/1/1 31/1/1
f 33/3/1 20/3/1 26/3/1
f 35/3/1 28/3/1 27/3/1
f 35/3/1 21/3/1 28/3/1
f 36/1/1 29/1/1 21/1/1
f 36/3/1 21/3/1 35/3/1
f 37/1/1 29/1/1 36/1/1
f 38/2/1 30/2/1 29/2/1
f 38/1/1 29/1/1 37/1/1
f 39/1/1 31/1/1 30/1/1
f 39/2/1 30/2/1 38/2/1
f 40/1/1 31/1/1 39/1/1
f 41/1/1 31/1/1 40/1/1
f 42/2/1 32/2/1 31/2/1
f 42/1/1 31/1/1 41/1/1
f 43/1/1 26/1/1 32/1/1
f 43/2/1 32/2/1 42/2/1
f 44/1/1 26/1/1 43/1/1
f 45/3/1 34/3/1 33/3/1
f 45/1/1 26/1/1 44/1/1
f 45/3/1 33/3/1 26/3/1
f 46/3/1 34/3/1 45/3/1
f 47/1/1 39/1/1 38/1/1
f 47/1/1 40/1/1 39/1/1
f 48/2/1 41/2/1 40/2/1
f 48/1/1 40/1/1 47/1/1
f 49/1/1 42/1/1 41/1/1
f 49/2/1 41/2/1 48/2/1
f 49/1/1 43/1/1 42/1/1
f 50/1/1 43/1/1 49/1/1
f 51/2/1 48/2/1 47/2/1
f 51/1/1 47/1/1 38/1/1
f 52/1/1 49/1/1 48/1/1
f 52/2/1 48/2/1 51/2/1
f 53/2/1 50/2/1 49/2/1
f 53/1/1 49/1/1 52/1/1
f 54/1/1 43/1/1 50/1/1
f 54/2/1 50/2/1 53/2/1
f 55/3/1 35/3/1 27/3/1
f 55/1/1 37/1/1 36/1/1
f 55/1/1 36/1/1 35/1/1
f 56/1/1 37/1/1 55/1/1
f 57/2/1 38/2/1 37/2/1
f 57/1/1 37/1/1 56/1/1
f 58/1/1 52/1/1 51/1/1
f 58/2/1 38/2/1 57/2/1
f 58/1/1 51/1/1 38/1/1
f 59/1/1 52/1/1 58/1/1
f 60/2/1 53/2/1 52/2/1
f 60/1/1 52/1/1 59/1/1
f 61/1/1 54/1/1 53/1/1
f 61/2/1 53/2/1 60/2/1
f 62/1/1 43/1/1 54/1/1
f 62/1/1 54/1/1 61/1/1
f 63/2/1 44/2/1 43/2/1
f 63/1/1 43/1/1 62/1/1
f 64/1/1 45/1/1 44/1/1
f 64/2/1 44/2/1 63/2/1
f 64/1/1 46/1/1 45/1/1
f 65/1/1 46/1/1 64/1/1
f 66/3/1 34/3/1 46/3/1
f 66/1/1 46/1/1 65/1/1
f 67/3/1 56/3/1 55/3/1
f 67/3/1 55/3/1 27/3/1
f 68/3/1 56/3/1 67/3/1
f 69/2/1 59/2/1 58/2/1
f 69/1/1 57/1/1 56/1/1
f 69/1/1 58/1/1 57/1/1
f 70/1/1 61/1/1 60/1/1
f 70/2/1 59/2/1 69/2/1
f 70/1/1 62/1/1 61/1/1
f 70/1/1 60/1/1 59/1/1
f 71/2/1 63/2/1 62/2/1
f 71/1/1 62/1/1 70/1/1
f 72/1/1 64/1/1 63/1/1
f 72/2/1 63/2/1 71/2/1
f 72/1/1 65/1/1 64/1/1
f 73/3/1 34/3/1 66/3/1
f 73/3/1 66/3/1 65/3/1
f 74/3/1 34/3/1 73/3/1
f 75/3/1 56/3/1 68/3/1
f 75/1/1 69/1/1 56/1/1
f 75/1/1 70/1/1 69/1/1
f 76/1/1 70/1/1 75/1/1
f 77/2/1 71/2/1 70/2/1
f 77/1/1 70/1/1 76/1/1
f 78/1/1 72/1/1 71/1/1
f 78/2/1 71/2/1 77/2/1
f 79/1/1 65/1/1 72/1/1
f 79/1/1 72/1/1 78/1/1
f 80/3/1 73/3/1 65/3/1
f 80/1/1 65/1/1 79/1/1
f 81/3/1 76/3/1 75/3/1
f 81/3/1 75/3/1 68/3/1
f 82/3/1 76/3/1 81/3/1
f 83/1/1 79/1/1 78/1/1
f 83/3/1 76/3/1 82/3/1
f 83/1/1 77/1/1 76/1/1
f 83/1/1 78/1/1 77/1/1
f 84/1/1 79/1/1 83/1/1
f 85/1/1 79/1/1 84/1/1
f 86/3/1 80/3/1 79/3/1
f 86/1/1 79/1/1 85/1/1
f 87/3/1 73/3/1 80/3/1
f 87/3/1 80/3/1 86/3/1
f 88/3/1 73/3/1 87/3/1
f 89/3/1 83/3/1 82/3/1
f 89/3/1 84/3/1 83/3/1
f 90/3/1 84/3/1 89/3/1
f 91/1/1 85/1/1 84/1/1
f 91/3/1 84/3/1 90/3/1
f 92/3/1 86/3/1 85/3/1
f 92/1/1 85/1/1 91/1/1
f 92/3/1 87/3/1 86/3/1
f 93/3/1 87/3/1 92/3/1
f 94/3/1 87/3/1 93/3/1
f 95/3/1 91/3/1 90/3/1
f 95/3/1 93/3/1 92/3/1
f 95/3/1 92/3/1 91/3/1
f 96/3/1 93/3/1 95/3/1
f 97/3/1 93/3/1 96/3/1
f 98/3/1 93/3/1 97/3/1
f 99/3/1 97/3/1 96/3/1
f 100/3/1 97/3/1 99/3/1
f 101/3/2 102/3/2 104/3/2
f 104/3/2 102/3/2 105/3/2
f 103/3/2 104/3/2 108/3/2
f 105/3/2 106/3/2 108/3/2
f 104/3/2 105/3/2 108/3/2
f 108/3/2 106/3/2 109/3/2
f 109/3/2 106/3/2 110/3/2
f 110/3/2 106/3/2 111/3/2
f 107/3/2 108/3/2 114/3/2
f 108/3/2 109/3/2 114/3/2
f 114/3/2 109/3/2 115/3/2
f 109/1/2 110/1/2 116/1/2
f 115/3/2 109/3/2 116/3/2
f 111/3/2 112/3/2 117/3/2
f 116/1/2 110/1/2 117/1/2
f 110/3/2 111/3/2 117/3/2
f 117/3/2 112/3/2 118/3/2
f 118/3/2 112/3/2 119/3/2
f 113/3/2 114/3/2 121/3/2
f 114/3/2 115/3/2 121/3/2
f 115/1/2 116/1/2 122/1/2
f 121/3/2 115/3/2 122/3/2
f 116/1/2 117/1/2 122/1/2
f 117/1/2 118/1/2 122/1/2
f 122/1/2 118/1/2 123/1/2
f 123/1/2 118/1/2 124/1/2
f 119/3/2 120/3/2 125/3/2
f 124/1/2 118/1/2 125/1/2
f 118/3/2 119/3/2 125/3/2
f 125/3/2 120/3/2 126/3/2
f 113/3/2 121/3/2 128/3/2
f 122/1/2 123/1/2 129/1/2
f 121/1/2 122/1/2 129/1/2
f 123/2/2 124/2/2 130/2/2
f 129/1/2 123/1/2 130/1/2
f 124/1/2 125/1/2 131/1/2
f 130/2/2 124/2/2 131/2/2
f 125/1/2 126/1/2 131/1/2
f 131/1/2 126/1/2 132/1/2
f 126/3/2 120/3/2 133/3/2
f 127/3/2 128/3/2 135/3/2
f 128/3/2 121/3/2 135/3/2
f 121/1/2 129/1/2 136/1/2
f 135/3/2 121/3/2 136/3/2
f 136/1/2 129/1/2 137/1/2
f 129/2/2 130/2/2 138/2/2
f 137/1/2 129/1/2 138/1/2
f 130/1/2 131/1/2 139/1/2
f 138/2/2 130/2/2 139/2/2
f 139/1/2 131/1/2 140/1/2
f 140/1/2 131/1/2 141/1/2
f 131/2/2 132/2/2 142/2/2
f 141/1/2 131/1/2 142/1/2
f 132/1/2 126/1/2 143/1/2
f 142/2/2 132/2/2 143/2/2
f 143/1/2 126/1/2 144/1/2
f 133/3/2 134/3/2 145/3/2
f 144/1/2 126/1/2 145/1/2
f 126/3/2 133/3/2 145/3/2
f 145/3/2 134/3/2 146/3/2
f 138/1/2 139/1/2 147/1/2
f 139/1/2 140/1/2 147/1/2
f 140/2/2 141/2/2 148/2/2
f 147/1/2 140/1/2 148/1/2
f 141/1/2 142/1/2 149/1/2
f 148/2/2 141/2/2 149/2/2
f 142/1/2 143/1/2 149/1/2
f 149/1/2 143/1/2 150/1/2
f 147/2/2 148/2/2 151/2/2
f 138/1/2 147/1/2 151/1/2
f 148/1/2 149/1/2 152/1/2
f 151/2/2 148/2/2 152/2/2
f 149/2/2 150/2/2 153/2/2
f 152/1/2 149/1/2 153/1/2
f 150/1/2 143/1/2 154/1/2
f 153/2/2 150/2/2 154/2/2
f 127/3/2 135/3/2 155/3/2
f 136/1/2 137/1/2 155/1/2
f 135/1/2 136/1/2 155/1/2
f 155/1/2 137/1/2 156/1/2
f 137/2/2 138/2/2 157/2/2
f 156/1/2 137/1/2 157/1/2
f 151/1/2 152/1/2 158/1/2
f 157/2/2 138/2/2 158/2/2
f 138/1/2 151/1/2 158/1/2
f 158/1/2 152/1/2 159/1/2
f 152/2/2 153/2/2 160/2/2
f 159/1/2 152/1/2 160/1/2
f 153/1/2 154/1/2 161/1/2
f 160/2/2 153/2/2 161/2/2
f 154/1/2 143/1/2 162/1/2
f 161/1/2 154/1/2 162/1/2
f 143/2/2 144/2/2 163/2/2
f 162/1/2 143/1/2 163/1/2
f 144/1/2 145/1/2 164/1/2
f 163/2/2 144/2/2 164/2/2
f 145/1/2 146/1/2 164/1/2
f 164/1/2 146/1/2 165/1/2
f 146/3/2 134/3/2 166/3/2
f 165/1/2 146/1/2 166/1/2
f 155/3/2 156/3/2 167/3/2
f 127/3/2 155/3/2 167/3/2
f 167/3/2 156/3/2 168/3/2
f 158/2/2 159/2/2 169/2/2
f 156/1/2 157/1/2 169/1/2
f 157/1/2 158/1/2 169/1/2
f 160/1/2 161/1/2 170/1/2
f 169/2/2 159/2/2 170/2/2
f 161/1/2 162/1/2 170/1/2
f 159/1/2 160/1/2 170/1/2
f 162/2/2 163/2/2 171/2/2
f 170/1/2 162/1/2 171/1/2
f 163/1/2 164/1/2 172/1/2
f 171/2/2 163/2/2 172/2/2
f 164/1/2 165/1/2 172/1/2
f 166/3/2 134/3/2 173/3/2
f 165/3/2 166/3/2 173/3/2
f 173/3/2 134/3/2 174/3/2
f 168/3/2 156/3/2 175/3/2
f 156/1/2 169/1/2 175/1/2
f 169/1/2 170/1/2 175/1/2
f 175/1/2 170/1/2 176/1/2
f 170/2/2 171/2/2 177/2/2
f 176/1/2 170/1/2 177/1/2
f 171/1/2 172/1/2 178/1/2
f 177/2/2 171/2/2 178/2/2
f 172/1/2 165/1/2 179/1/2
f 178/1/2 172/1/2 179/1/2
f 165/3/2 173/3/2 180/3/2
f 179/1/2 165/1/2 180/1/2
f 175/3/2 176/3/2 181/3/2
f 168/3/2 175/3/2 181/3/2
f 181/3/2 176/3/2 182/3/2
f 178/1/2 179/1/2 183/1/2
f 182/3/2 176/3/2 183/3/2
f 176/1/2 177/1/2 183/1/2
f 177/1/2 178/1/2 183/1/2
f 183/1/2 179/1/2 184/1/2
f 184/1/2 179/1/2 185/1/2
f 179/3/2 180/3/2 186/3/2
f 185/1/2 179/1/2 186/1/2
f 180/3/2 173/3/2 187/3/2
f 186/3/2 180/3/2 187/3/2
f 187/3/2 173/3/2 188/3/2
f 182/3/2 183/3/2 189/3/2
f 183/3/2 184/3/2 189/3/2
f 189/3/2 184/3/2 190/3/2
f 184/1/2 185/1/2 191/1/2
f 190/3/2 184/3/2 191/3/2
f 185/3/2 186/3/2 192/3/2
f 191/1/2 185/1/2 192/1/2
f 186/3/2 187/3/2 192/3/2
f 192/3/2 187/3/2 193/3/2
f 193/3/2 187/3/2 194/3/2
f 190/3/2 191/3/2 195/3/2
f 192/3/2 193/3/2 195/3/2
f 191/3/2 192/3/2 195/3/2
f 195/3/2 193/3/2 196/3/2
f 196/3/2 193/3/2 197/3/2
f 197/3/2 193/3/2 198/3/2
f 196/3/2 197/3/2 199/3/2
f 199/3/2 197/3/2 200/3/2
f 203/3/3 202/3/3 201/3/3
f 204/3/3 202/3/3 203/3/3
f 209/3/3 206/3/3 205/3/3
f 210/3/3 206/3/3 209/3/3
f 211/3/3 208/3/3 207/3/3
f 212/3/3 208/3/3 211/3/3
f 217/3/3 214/3/3 213/3/3
f 218/3/3 214/3/3 217/3/3
f 219/3/3 216/3/3 215/3/3
f 220/3/3 216/3/3 219/3/3
f 225/3/3 222/3/3 221/3/3
f 226/3/3 222/3/3 225/3/3
f 227/3/3 224/3/3 223/3/3
f 228/3/3 224/3/3 227/3/3
f 233/3/3 230/3/3 229/3/3
f 234/3/3 230/3/3 233/3/3
f 235/3/3 232/3/3 231/3/3
f 236/3/3 232/3/3 235/3/3
f 237/3/4 238/3/4 241/3/4
f 241/3/4 238/3/4 242/3/4
f 239/3/4 240/3/4 243/3/4
f 243/3/4 240/3/4 244/3/4
f 245/3/4 246/3/4 249/3/4
f 249/3/4 246/3/4 250/3/4
f 247/3/4 248/3/4 251/3/4
f 251/3/4 248/3/4 252/3/4
f 253/3/4 254/3/4 257/3/4
f 257/3/4 254/3/4 258/3/4
f 255/3/4 256/3/4 259/3/4
f 259/3/4 256/3/4 260/3/4
f 261/3/4 262/3/4 265/3/4
f 265/3/4 262/3/4 266/3/4
f 263/3/4 264/3/4 267/3/4
f 267/3/4 264/3/4 268/3/4
f 269/3/4 270/3/4 271/3/4
f 271/3/4 270/3/4 272/3/4
f 275/3/5 274/3/5 273/3/5
f 276/3/5 274/3/5 275/3/5
f 279/3/5 278/3/5 277/3/5
f 280/3/5 278/3/5 279/3/5
f 283/3/5 282/3/5 281/3/5
f 284/3/5 282/3/5 283/3/5
f 287/3/5 286/3/5 285/3/5
f 288/3/5 286/3/5 287/3/5
f 291/3/5 290/3/5 289/3/5
f 292/3/5 290/3/5 291/3/5
f 295/3/5 294/3/5 293/3/5
f 296/3/5 294/3/5 295/3/5
f 299/3/5 298/3/5 297/3/5
f 300/3/5 298/3/5 299/3/5
f 303/3/5 302/3/5 301/3/5
f 304/3/5 302/3/5 303/3/5
f 307/3/5 306/3/5 305/3/5
f 308/3/5 306/3/5 307/3/5
f 309/3/6 310/3/6 311/3/6
f 311/3/6 310/3/6 312/3/6
f 313/3/6 314/3/6 315/3/6
f 315/3/6 314/3/6 316/3/6
f 317/3/6 318/3/6 319/3/6
f 319/3/6 318/3/6 320/3/6
f 321/3/6 322/3/6 323/3/6
f 323/3/6 322/3/6 324/3/6
f 325/3/6 326/3/6 327/3/6
f 327/3/6 326/3/6 328/3/6
f 329/3/6 330/3/6 331/3/6
f 331/3/6 330/3/6 332/3/6
f 333/3/6 334/3/6 335/3/6
f 335/3/6 334/3/6 336/3/6
f 337/3/6 338/3/6 339/3/6
f 339/3/6 338/3/6 340/3/6
f 341/3/6 342/3/6 343/3/6
f 343/3/6 342/3/6 344/3/6
