# MagicaVoxel @ Ephtracy

# group
o minesweeper_numbers

# material
mtllib 2-0-minesweeper_numbers.mtl
usemtl palette

# normals
vn -1 0 0
vn 1 0 0
vn 0 0 1
vn 0 0 -1
vn 0 -1 0
vn 0 1 0

# texcoords
vt 0.650391 0.5
vt 0.900391 0.5

# verts
v 4.3 0 2.1
v 4.3 0 0.8
v 4.3 0 -0.8
v 4.3 0 -1.6
v 4.3 0.1 2.1
v 4.3 0.1 0.8
v 4.3 0.1 -0.8
v 4.3 0.1 -1.6
v 4.7 0 0.8
v 4.7 0 0.4
v 4.7 0 -1.6
v 4.7 0 -2.1
v 4.7 0.1 0.8
v 4.7 0.1 0.4
v 4.7 0.1 -1.6
v 4.7 0.1 -2.1
v 5.5 0 0.4
v 5.5 0 0.0999999
v 5.5 0 0
v 5.5 0.1 0.4
v 5.5 0.1 0.0999999
v 5.5 0.1 0
v 6.3 0 0
v 6.3 0 -0.4
v 6.3 0.1 0
v 6.3 0.1 -0.4
v 7.2 0 -0.4
v 7.2 0 -1.2
v 7.2 0.1 -0.4
v 7.2 0.1 -1.2
v 5.5 0 -0.8
v 5.5 0 -1.2
v 5.5 0.1 -0.8
v 5.5 0.1 -1.2
v 5.9 0 1.2
v 5.9 0 0.8
v 5.9 0.1 1.2
v 5.9 0.1 0.8
v 6.8 0 0.8
v 6.8 0 0.4
v 6.8 0.1 0.8
v 6.8 0.1 0.4
v 7.6 0 0.4
v 7.6 0 0
v 7.6 0.1 0.4
v 7.6 0.1 0
v 8 0 0
v 8 0 -0.4
v 8 0 -1.6
v 8 0 -2
v 8 0 -2.1
v 8 0.1 0
v 8 0.1 -0.4
v 8 0.1 -1.6
v 8 0.1 -2
v 8 0.1 -2.1
v 8.4 0 2.1
v 8.4 0 1.2
v 8.4 0 -0.4
v 8.4 0 -1.6
v 8.4 0.1 2.1
v 8.4 0.1 1.2
v 8.4 0.1 -0.4
v 8.4 0.1 -1.6
v 4.3 0 2.1
v 4.3 0.1 2.1
v 8.4 0 2.1
v 8.4 0.1 2.1
v 5.9 0 0.8
v 5.9 0.1 0.8
v 6.8 0 0.8
v 6.8 0.1 0.8
v 6.8 0 0.4
v 6.8 0.1 0.4
v 7.6 0 0.4
v 7.6 0.1 0.4
v 7.6 0 0
v 7.6 0.1 0
v 8 0 0
v 8 0.1 0
v 8 0 -0.4
v 8 0.1 -0.4
v 8.4 0 -0.4
v 8.4 0.1 -0.4
v 4.3 0 -0.8
v 4.3 0.1 -0.8
v 5.5 0 -0.8
v 5.5 0.1 -0.8
v 5.5 0 -1.2
v 5.5 0.1 -1.2
v 7.2 0 -1.2
v 7.2 0.1 -1.2
v 5.9 0 1.2
v 5.9 0.1 1.2
v 8.4 0 1.2
v 8.4 0.1 1.2
v 4.3 0 0.8
v 4.3 0.1 0.8
v 4.7 0 0.8
v 4.7 0.1 0.8
v 4.7 0 0.4
v 4.7 0.1 0.4
v 5.5 0 0.4
v 5.5 0.1 0.4
v 5.5 0 0
v 5.5 0.1 0
v 5.6 0 0
v 5.6 0.1 0
v 6.3 0 0
v 6.3 0.1 0
v 6.3 0 -0.4
v 6.3 0.1 -0.4
v 7.2 0 -0.4
v 7.2 0.1 -0.4
v 4.3 0 -1.6
v 4.3 0.1 -1.6
v 4.7 0 -1.6
v 4.7 0.1 -1.6
v 8 0 -1.6
v 8 0.1 -1.6
v 8.4 0 -1.6
v 8.4 0.1 -1.6
v 4.7 0 -2.1
v 4.7 0.1 -2.1
v 7.9 0 -2.1
v 7.9 0.1 -2.1
v 8 0 -2.1
v 8 0.1 -2.1
v 4.3 0 2.1
v 8.4 0 2.1
v 5.9 0 1.2
v 8.4 0 1.2
v 4.3 0 0.8
v 4.7 0 0.8
v 5.9 0 0.8
v 6.8 0 0.8
v 4.7 0 0.4
v 5.5 0 0.4
v 6.8 0 0.4
v 7.6 0 0.4
v 5.5 0 0.0999999
v 5.6 0 0.0999999
v 5.5 0 0
v 5.6 0 0
v 6.3 0 0
v 7.6 0 0
v 8 0 0
v 6.3 0 -0.4
v 7.2 0 -0.4
v 8 0 -0.4
v 8.4 0 -0.4
v 4.3 0 -0.8
v 5.5 0 -0.8
v 5.5 0 -1.2
v 7.2 0 -1.2
v 4.3 0 -1.6
v 4.7 0 -1.6
v 8 0 -1.6
v 8.4 0 -1.6
v 7.9 0 -2
v 8 0 -2
v 4.7 0 -2.1
v 7.9 0 -2.1
v 8 0 -2.1
v 4.3 0.1 2.1
v 8.4 0.1 2.1
v 5.9 0.1 1.2
v 8.4 0.1 1.2
v 4.3 0.1 0.8
v 4.7 0.1 0.8
v 5.9 0.1 0.8
v 6.8 0.1 0.8
v 4.7 0.1 0.4
v 5.5 0.1 0.4
v 6.8 0.1 0.4
v 7.6 0.1 0.4
v 5.5 0.1 0.0999999
v 5.6 0.1 0.0999999
v 5.5 0.1 0
v 5.6 0.1 0
v 6.3 0.1 0
v 7.6 0.1 0
v 8 0.1 0
v 6.3 0.1 -0.4
v 7.2 0.1 -0.4
v 8 0.1 -0.4
v 8.4 0.1 -0.4
v 4.3 0.1 -0.8
v 5.5 0.1 -0.8
v 5.5 0.1 -1.2
v 7.2 0.1 -1.2
v 4.3 0.1 -1.6
v 4.7 0.1 -1.6
v 8 0.1 -1.6
v 8.4 0.1 -1.6
v 7.9 0.1 -2
v 8 0.1 -2
v 4.7 0.1 -2.1
v 7.9 0.1 -2.1
v 8 0.1 -2.1

# faces
f 5/2/1 2/2/1 1/2/1
f 6/2/1 2/2/1 5/2/1
f 7/2/1 4/2/1 3/2/1
f 8/2/1 4/2/1 7/2/1
f 13/2/1 10/2/1 9/2/1
f 14/2/1 10/2/1 13/2/1
f 15/2/1 12/2/1 11/2/1
f 16/2/1 12/2/1 15/2/1
f 20/2/1 18/2/1 17/2/1
f 21/1/1 19/1/1 18/1/1
f 21/2/1 18/2/1 20/2/1
f 22/1/1 19/1/1 21/1/1
f 25/2/1 24/2/1 23/2/1
f 26/2/1 24/2/1 25/2/1
f 29/2/1 28/2/1 27/2/1
f 30/2/1 28/2/1 29/2/1
f 31/2/2 32/2/2 33/2/2
f 33/2/2 32/2/2 34/2/2
f 35/2/2 36/2/2 37/2/2
f 37/2/2 36/2/2 38/2/2
f 39/2/2 40/2/2 41/2/2
f 41/2/2 40/2/2 42/2/2
f 43/2/2 44/2/2 45/2/2
f 45/2/2 44/2/2 46/2/2
f 47/2/2 48/2/2 52/2/2
f 52/2/2 48/2/2 53/2/2
f 49/2/2 50/2/2 54/2/2
f 50/1/2 51/1/2 55/1/2
f 54/2/2 50/2/2 55/2/2
f 55/1/2 51/1/2 56/1/2
f 57/2/2 58/2/2 61/2/2
f 61/2/2 58/2/2 62/2/2
f 59/2/2 60/2/2 63/2/2
f 63/2/2 60/2/2 64/2/2
f 67/2/3 66/2/3 65/2/3
f 68/2/3 66/2/3 67/2/3
f 71/2/3 70/2/3 69/2/3
f 72/2/3 70/2/3 71/2/3
f 75/2/3 74/2/3 73/2/3
f 76/2/3 74/2/3 75/2/3
f 79/2/3 78/2/3 77/2/3
f 80/2/3 78/2/3 79/2/3
f 83/2/3 82/2/3 81/2/3
f 84/2/3 82/2/3 83/2/3
f 87/2/3 86/2/3 85/2/3
f 88/2/3 86/2/3 87/2/3
f 91/2/3 90/2/3 89/2/3
f 92/2/3 90/2/3 91/2/3
f 93/2/4 94/2/4 95/2/4
f 95/2/4 94/2/4 96/2/4
f 97/2/4 98/2/4 99/2/4
f 99/2/4 98/2/4 100/2/4
f 101/2/4 102/2/4 103/2/4
f 103/2/4 102/2/4 104/2/4
f 105/1/4 106/1/4 107/1/4
f 107/1/4 106/1/4 108/1/4
f 107/2/4 108/2/4 109/2/4
f 109/2/4 108/2/4 110/2/4
f 111/2/4 112/2/4 113/2/4
f 113/2/4 112/2/4 114/2/4
f 115/2/4 116/2/4 117/2/4
f 117/2/4 116/2/4 118/2/4
f 119/2/4 120/2/4 121/2/4
f 121/2/4 120/2/4 122/2/4
f 123/2/4 124/2/4 125/2/4
f 125/2/4 124/2/4 126/2/4
f 125/1/4 126/1/4 127/1/4
f 127/1/4 126/1/4 128/1/4
f 131/2/5 130/2/5 129/2/5
f 132/2/5 130/2/5 131/2/5
f 133/2/5 131/2/5 129/2/5
f 134/2/5 131/2/5 133/2/5
f 135/2/5 131/2/5 134/2/5
f 137/2/5 136/2/5 135/2/5
f 137/2/5 135/2/5 134/2/5
f 138/2/5 136/2/5 137/2/5
f 139/2/5 136/2/5 138/2/5
f 141/2/5 140/2/5 139/2/5
f 141/2/5 139/2/5 138/2/5
f 142/2/5 140/2/5 141/2/5
f 143/1/5 142/1/5 141/1/5
f 144/2/5 140/2/5 142/2/5
f 144/1/5 142/1/5 143/1/5
f 145/2/5 140/2/5 144/2/5
f 146/2/5 140/2/5 145/2/5
f 148/2/5 147/2/5 146/2/5
f 148/2/5 146/2/5 145/2/5
f 149/2/5 147/2/5 148/2/5
f 150/2/5 147/2/5 149/2/5
f 154/2/5 153/2/5 152/2/5
f 155/2/5 151/2/5 150/2/5
f 155/2/5 150/2/5 149/2/5
f 156/2/5 154/2/5 152/2/5
f 156/2/5 155/2/5 154/2/5
f 157/2/5 155/2/5 156/2/5
f 158/2/5 151/2/5 155/2/5
f 158/2/5 155/2/5 157/2/5
f 159/2/5 151/2/5 158/2/5
f 160/2/5 158/2/5 157/2/5
f 161/2/5 158/2/5 160/2/5
f 162/2/5 160/2/5 157/2/5
f 163/1/5 161/1/5 160/1/5
f 163/2/5 160/2/5 162/2/5
f 164/1/5 161/1/5 163/1/5
f 165/2/6 166/2/6 167/2/6
f 167/2/6 166/2/6 168/2/6
f 165/2/6 167/2/6 169/2/6
f 169/2/6 167/2/6 170/2/6
f 170/2/6 167/2/6 171/2/6
f 171/2/6 172/2/6 173/2/6
f 170/2/6 171/2/6 173/2/6
f 173/2/6 172/2/6 174/2/6
f 174/2/6 172/2/6 175/2/6
f 175/2/6 176/2/6 177/2/6
f 174/2/6 175/2/6 177/2/6
f 177/2/6 176/2/6 178/2/6
f 177/1/6 178/1/6 179/1/6
f 178/2/6 176/2/6 180/2/6
f 179/1/6 178/1/6 180/1/6
f 180/2/6 176/2/6 181/2/6
f 181/2/6 176/2/6 182/2/6
f 182/2/6 183/2/6 184/2/6
f 181/2/6 182/2/6 184/2/6
f 184/2/6 183/2/6 185/2/6
f 185/2/6 183/2/6 186/2/6
f 188/2/6 189/2/6 190/2/6
f 186/2/6 187/2/6 191/2/6
f 185/2/6 186/2/6 191/2/6
f 188/2/6 190/2/6 192/2/6
f 190/2/6 191/2/6 192/2/6
f 192/2/6 191/2/6 193/2/6
f 191/2/6 187/2/6 194/2/6
f 193/2/6 191/2/6 194/2/6
f 194/2/6 187/2/6 195/2/6
f 193/2/6 194/2/6 196/2/6
f 196/2/6 194/2/6 197/2/6
f 193/2/6 196/2/6 198/2/6
f 196/1/6 197/1/6 199/1/6
f 198/2/6 196/2/6 199/2/6
f 199/1/6 197/1/6 200/1/6
